<svg xmlns="http://www.w3.org/2000/svg" viewBox="0 0 64 64" width="64" height="64">
  <defs>
    <linearGradient id="gold" x1="0%" y1="0%" x2="100%" y2="100%">
      <stop offset="0%" stop-color="#6b5418"/>
      <stop offset="35%" stop-color="#d4af37"/>
      <stop offset="55%" stop-color="#f4e088"/>
      <stop offset="75%" stop-color="#d4af37"/>
      <stop offset="100%" stop-color="#6b5418"/>
    </linearGradient>
  </defs>
  <!-- Fondo obsidiana con esquinas redondeadas -->
  <rect width="64" height="64" rx="14" fill="#050505"/>
  <!-- Anillo dorado externo -->
  <circle cx="32" cy="32" r="25" fill="none" stroke="url(#gold)" stroke-width="1.4" opacity="0.55"/>
  <!-- Anillo dorado interno -->
  <circle cx="32" cy="32" r="21" fill="none" stroke="url(#gold)" stroke-width="0.8" opacity="0.35"/>
  <!-- Monograma S estilizado (trazo serif) -->
  <path d="M40 22.5 C40 19 36.5 17 31.5 17 C25.5 17 22 19.8 22 23.6 C22 27 24.6 28.7 30.4 30 C36.4 31.3 40 32.8 40 37.2 C40 41.4 36.2 44 30.4 44 C24.8 44 21 41.6 21 37.8"
        fill="none" stroke="url(#gold)" stroke-width="3.4" stroke-linecap="round" stroke-linejoin="round"/>
  <!-- Gota de perfume (acento) -->
  <path d="M32 47 C32 47 35 50.2 35 52 C35 53.2 33.7 54 32 54 C30.3 54 29 53.2 29 52 C29 50.2 32 47 32 47 Z"
        fill="url(#gold)"/>
</svg>
